<svg width="27" height="27" viewBox="0 0 27 27" fill="none" xmlns="http://www.w3.org/2000/svg">
	<path d="M19.125 24.75H5.625C4.72989 24.75 3.87145 24.3944 3.23851 23.7615C2.60558 23.1286 2.25 22.2701 2.25 21.375V7.875C2.25 6.97989 2.60558 6.12145 3.23851 5.48851C3.87145 4.85558 4.72989 4.5 5.625 4.5H10.125C10.4234 4.5 10.7095 4.61853 10.9205 4.82951C11.1315 5.04048 11.25 5.32663 11.25 5.625C11.25 5.92337 11.1315 6.20952 10.9205 6.42049C10.7095 6.63147 10.4234 6.75 10.125 6.75H5.625C5.32663 6.75 5.04048 6.86853 4.8295 7.0795C4.61853 7.29048 4.5 7.57663 4.5 7.875V21.375C4.5 21.6734 4.61853 21.9595 4.8295 22.1705C5.04048 22.3815 5.32663 22.5 5.625 22.5H19.125C19.4234 22.5 19.7095 22.3815 19.9205 22.1705C20.1315 21.9595 20.25 21.6734 20.25 21.375V16.875C20.25 16.5766 20.3685 16.2905 20.5795 16.0795C20.7905 15.8685 21.0766 15.75 21.375 15.75C21.6734 15.75 21.9595 15.8685 22.1705 16.0795C22.3815 16.2905 22.5 16.5766 22.5 16.875V21.375C22.5 22.2701 22.1444 23.1286 21.5115 23.7615C20.8786 24.3944 20.0201 24.75 19.125 24.75Z" fill="#464646" />
	<path d="M16.425 6.60376L10.8562 12.2288C10.7803 12.2965 10.7289 12.3875 10.71 12.4875L9.585 16.785C9.55774 16.8798 9.55696 16.9802 9.58274 17.0754C9.60852 17.1706 9.65988 17.2569 9.73125 17.325C9.7861 17.369 9.84918 17.4016 9.91679 17.4209C9.9844 17.4402 10.0552 17.4459 10.125 17.4375C10.1732 17.4475 10.223 17.4475 10.2713 17.4375L14.5688 16.3125C14.6688 16.2936 14.7598 16.2422 14.8275 16.1663L20.3962 10.575L16.425 6.60376Z" fill="#F7852B" />
	<path d="M23.625 5.00618L21.9937 3.37493C21.674 3.06093 21.2438 2.88501 20.7956 2.88501C20.3475 2.88501 19.9172 3.06093 19.5975 3.37493L18 5.00618L21.9937 8.99993L23.625 7.40243C23.939 7.08268 24.1149 6.65245 24.1149 6.2043C24.1149 5.75616 23.939 5.32593 23.625 5.00618Z" fill="#F7852B" />
</svg>
