<svg width="12" height="18" viewBox="0 0 12 18" fill="none" xmlns="http://www.w3.org/2000/svg">
	<path d="M11.5016 9.033L7.26058 6.575L9.39858 1.444C9.46458 1.31 9.50158 1.159 9.50158 1C9.50158 0.448 9.05658 0 8.50458 0C8.25558 0.004 8.04758 0.083 7.88258 0.214C7.84958 0.24 7.82958 0.256 7.81258 0.274L0.312583 7.374C0.0835831 7.591 -0.0294171 7.903 0.00658286 8.216C0.0425829 8.529 0.225583 8.807 0.497583 8.966L4.73958 11.426L2.57658 16.616C2.39358 17.052 2.54258 17.556 2.93058 17.824C3.10358 17.942 3.30258 18 3.49958 18C3.74758 18 3.99558 17.907 4.18758 17.726L11.6876 10.624C11.9166 10.407 12.0296 10.095 11.9936 9.782C11.9566 9.469 11.7736 9.191 11.5016 9.033Z" fill="white" />
</svg>
