<svg width="14" height="22" viewBox="0 0 14 22" fill="none" xmlns="http://www.w3.org/2000/svg">
	<path d="M11.536 1.49314C10.0747 0.382584 8.42748 0 6.33921 0C4.75574 0 3.40075 0.324134 2.32739 1.04679C0.743914 2.12547 0 3.93743 0 6.8015H4.0809C4.0809 6.03633 4.00651 5.21271 4.45286 4.50599C4.8992 3.79927 5.5209 3.25728 6.58895 3.25728C7.67294 3.25728 8.23087 3.57079 8.75693 4.21905C9.20328 4.77168 9.37331 5.43057 9.37331 6.13197C9.37331 6.73773 9.06512 7.29567 8.69848 7.80047C8.49656 8.09803 8.23088 8.36372 7.89611 8.61877C7.89611 8.61877 5.69094 9.93125 4.91514 11.1746C4.33595 12.0992 4.12872 13.2576 4.0809 14.6445C4.07559 14.7454 4.11278 14.9527 4.46348 14.9527C4.80887 14.9527 7.43914 14.9527 7.74733 14.9527C8.05552 14.9527 8.11929 14.7189 8.1246 14.6232C8.14586 14.1184 8.20962 13.3426 8.29995 13.0504C8.4753 12.4978 8.81538 12.0142 9.34675 11.5997L10.4467 10.8399C11.4403 10.0641 12.2321 9.43176 12.5828 8.93228C13.1832 8.11397 13.603 7.10438 13.603 5.9088C13.603 3.95868 12.8857 2.51868 11.536 1.49314ZM6.05758 17.0675C4.68134 17.025 3.54422 17.9815 3.4964 19.4746C3.45389 20.9731 4.53256 21.9561 5.91412 21.9986C7.34881 22.0411 8.45936 21.1165 8.50187 19.6234C8.54438 18.1302 7.49228 17.11 6.05758 17.0675Z" fill="white" />
</svg>
